<svg id="Layer_1" data-name="Layer 1" xmlns="http://www.w3.org/2000/svg" viewBox="0 0 48 48"><title>0048_gear_a</title><path d="M48,27V21H40.8A16.37,16.37,0,0,0,38,14.2l5-5L38.8,5l-5,5A18,18,0,0,0,27,7.1V0H21V7.1a16.37,16.37,0,0,0-6.8,2.8l-5-5L4.9,9.2l5,5A17.82,17.82,0,0,0,7.1,21H0v6H7.2A16.37,16.37,0,0,0,10,33.8L4.9,38.9l4.2,4.2L14.2,38A17.82,17.82,0,0,0,21,40.8V48h6V40.8A16.37,16.37,0,0,0,33.8,38l5.1,5.1,4.2-4.2L38,33.8A16.37,16.37,0,0,0,40.8,27ZM12.9,23.9A11.1,11.1,0,1,1,24,35,11.14,11.14,0,0,1,12.9,23.9Z"/></svg>